<svg viewBox="0 0 150 150" xmlns="http://www.w3.org/2000/svg" xmlns:xlink="http://www.w3.org/1999/xlink"><linearGradient id="a" gradientUnits="userSpaceOnUse" x1="214.35" x2="125.79" y1="117.02" y2="95.82"><stop offset="0" stop-color="#6318ff"/><stop offset=".51" stop-color="#3a8df0"/><stop offset="1" stop-color="#13ffe2"/></linearGradient><linearGradient id="b" gradientUnits="userSpaceOnUse" x1="134.8" x2="142.66" y1="100.07" y2="131.05"><stop offset="0" stop-color="#6318ff"/><stop offset="1" stop-color="#13ffe2"/></linearGradient><linearGradient id="c" x1="120.15" x2="131.2" xlink:href="#b" y1="95.43" y2="125.44"/><linearGradient id="d" x1="223.94" x2="128.06" xlink:href="#b" y1="114.64" y2="79.41"/><linearGradient id="e" x1="137.08" x2="140.38" xlink:href="#b" y1="83.19" y2="96.19"/><linearGradient id="f" x1="115.36" x2="130.91" xlink:href="#b" y1="71.66" y2="94.59"/><linearGradient id="g" x1="223.94" x2="128.06" xlink:href="#b" y1="103.1" y2="67.86"/><linearGradient id="h" x1="137.58" x2="139.88" xlink:href="#b" y1="71.52" y2="80.55"/><linearGradient id="i" x1="117.46" x2="130.33" xlink:href="#b" y1="61.11" y2="80.08"/><linearGradient id="j" x1="94.76" x2="11.02" xlink:href="#b" y1="138.15" y2="107.38"/><linearGradient id="k" x1="17.81" x2="22.87" xlink:href="#b" y1="110.96" y2="130.89"/><linearGradient id="l" x1="-4.62" x2="14.77" xlink:href="#b" y1="98.48" y2="127.06"/><linearGradient id="m" x1="94.76" x2="11.02" xlink:href="#b" y1="128.07" y2="97.3"/><linearGradient id="n" x1="19.34" x2="21.34" xlink:href="#b" y1="100.49" y2="108.39"/><linearGradient id="o" x1="1.76" x2="13" xlink:href="#b" y1="91.4" y2="107.97"/><linearGradient id="p" gradientUnits="userSpaceOnUse" x1="82.29" x2="69.25" y1="95.56" y2="95.56"><stop offset="0" stop-color="#3d48ff"/><stop offset="1" stop-color="#48c2ff"/></linearGradient><linearGradient id="q" gradientUnits="userSpaceOnUse" x1="108.01" x2="-13.57" y1="66.05" y2="-20.43"><stop offset="0" stop-color="#0e9cff"/><stop offset="1" stop-color="#fff"/></linearGradient><linearGradient id="r" gradientUnits="userSpaceOnUse" x1="58.74" x2="11.2" y1="117.14" y2="83.08"><stop offset="0" stop-color="#002aff"/><stop offset="1" stop-color="#fff"/></linearGradient><linearGradient id="s" gradientUnits="userSpaceOnUse" x1="129.24" x2="20.58" y1="129.28" y2="108.17"><stop offset="0" stop-color="#6378ff"/><stop offset="1" stop-color="#cff"/></linearGradient><linearGradient id="t" x1="59.46" x2="11.92" xlink:href="#r" y1="105.45" y2="71.39"/><linearGradient id="u" x1="131.53" x2="22.87" xlink:href="#s" y1="117.49" y2="96.38"/><linearGradient id="v" x1="59.95" x2="12.41" xlink:href="#r" y1="93.53" y2="59.47"/><linearGradient id="w" x1="133.82" x2="25.16" xlink:href="#s" y1="105.71" y2="84.6"/><linearGradient id="x" x1="58.7" x2="11.16" xlink:href="#r" y1="80.43" y2="46.37"/><linearGradient id="y" x1="136.11" x2="27.44" xlink:href="#s" y1="93.95" y2="72.84"/><linearGradient id="z" x1="103.89" x2="90.49" xlink:href="#s" y1="75.99" y2="67.37"/><linearGradient id="A" x1="108.9" x2="103.51" xlink:href="#s" y1="75.98" y2="72.51"/><linearGradient id="B" x1="95.93" x2="87.43" xlink:href="#s" y1="85.37" y2="79.89"/><linearGradient id="C" x1="105.96" x2="95.91" xlink:href="#s" y1="88.01" y2="81.54"/><linearGradient id="D" x1="88.33" x2="84.49" xlink:href="#s" y1="94.4" y2="91.93"/><linearGradient id="E" x1="103.89" x2="90.49" xlink:href="#s" y1="99.05" y2="90.43"/><linearGradient id="F" x1="108.9" x2="103.51" xlink:href="#s" y1="99.07" y2="95.6"/><linearGradient id="G" x1="95.93" x2="87.43" xlink:href="#s" y1="108.46" y2="102.98"/><linearGradient id="H" x1="105.96" x2="95.91" xlink:href="#s" y1="111.1" y2="104.63"/><linearGradient id="I" x1="88.33" x2="84.49" xlink:href="#s" y1="117.49" y2="115.02"/><linearGradient id="J" x1="103.89" x2="90.49" xlink:href="#s" y1="121.73" y2="113.11"/><linearGradient id="K" x1="100.52" x2="96.7" xlink:href="#q" y1="75.3" y2="70.07"/><linearGradient id="L" x1="108.88" x2="106.37" xlink:href="#q" y1="76.97" y2="73.53"/><linearGradient id="M" x1="94.61" x2="91.59" xlink:href="#q" y1="85.7" y2="81.57"/><linearGradient id="N" x1="103.99" x2="100.73" xlink:href="#q" y1="88.01" y2="83.55"/><linearGradient id="O" x1="88.97" x2="86.7" xlink:href="#q" y1="95.72" y2="92.62"/><linearGradient id="P" x1="100.52" x2="96.7" xlink:href="#q" y1="98.36" y2="93.13"/><linearGradient id="Q" x1="108.88" x2="106.37" xlink:href="#q" y1="100.06" y2="96.62"/><linearGradient id="R" x1="94.61" x2="91.59" xlink:href="#q" y1="108.79" y2="104.66"/><linearGradient id="S" x1="103.99" x2="100.73" xlink:href="#q" y1="111.1" y2="106.64"/><linearGradient id="T" x1="88.97" x2="86.7" xlink:href="#q" y1="118.81" y2="115.71"/><linearGradient id="U" x1="100.52" x2="96.7" xlink:href="#q" y1="121.04" y2="115.81"/><linearGradient id="V" x1="123.28" x2="1.69" xlink:href="#q" y1="70.23" y2="-16.25"/><linearGradient id="W" gradientTransform="matrix(-1 0 0 1 542.72 0)" gradientUnits="userSpaceOnUse" x1="483.77" x2="466.38" y1="47.76" y2="10.97"><stop offset="0" stop-color="#3d4aff"/><stop offset="1" stop-color="#65d9ff"/></linearGradient><linearGradient id="X" x1="466.15" x2="461.25" xlink:href="#W" y1="11.87" y2="4.25"/><linearGradient id="Y" x1="487.54" x2="480.59" xlink:href="#W" y1="39.31" y2="24.61"/><linearGradient id="Z" gradientTransform="matrix(-1 0 0 1 542.72 0)" gradientUnits="userSpaceOnUse" x1="485.29" x2="444.51" y1="40.53" y2="-3.86"><stop offset="0" stop-color="#4f24ff"/><stop offset="1" stop-color="#13d9e2"/></linearGradient><linearGradient id="aa" x1="483.77" x2="466.38" xlink:href="#W" y1="47.76" y2="10.97"/><linearGradient id="ab" x1="485.29" x2="444.51" xlink:href="#Z" y1="40.53" y2="-3.86"/><linearGradient id="ac" x1="466.08" x2="453.65" xlink:href="#W" y1="43.82" y2="17.52"/><linearGradient id="ad" x1="453.48" x2="449.98" xlink:href="#W" y1="18.17" y2="12.71"/><linearGradient id="ae" x1="468.77" x2="463.81" xlink:href="#W" y1="37.77" y2="27.27"/><linearGradient id="af" x1="467.16" x2="438.02" xlink:href="#Z" y1="38.65" y2="6.92"/><path d="m121.94 97.5 11.19-6.44 11.2 6.59-11.2 6.44z" fill="url(#a)"/><path d="m133.13 133.47v-29.38l11.2-6.44v29.38z" fill="url(#b)"/><path d="m121.94 97.5v29.38l11.19 6.59v-29.38z" fill="url(#c)"/><path d="m121.94 81.19 11.19-6.44 11.2 6.59-11.2 6.44z" fill="url(#d)"/><path d="m133.13 98.03v-10.25l11.2-6.44v10.25z" fill="url(#e)"/><path d="m121.94 81.19v10.25l11.19 6.59v-10.25z" fill="url(#f)"/><path d="m121.94 69.65 11.19-6.44 11.2 6.59-11.2 6.44z" fill="url(#g)"/><path d="m133.13 82.27v-6.03l11.2-6.44v6.03z" fill="url(#h)"/><path d="m121.94 69.65v6.02l11.19 6.6v-6.03z" fill="url(#i)"/><path d="m5.67 108.94 9.78-5.62 9.78 5.76-9.78 5.62z" fill="url(#j)"/><path d="m15.45 132.77v-18.07l9.78-5.62v18.07z" fill="url(#k)"/><path d="m5.67 108.94v18.07l9.78 5.76v-18.07z" fill="url(#l)"/><path d="m5.67 98.86 9.78-5.62 9.78 5.76-9.78 5.62z" fill="url(#m)"/><path d="m15.45 109.88v-5.26l9.78-5.62v5.26z" fill="url(#n)"/><path d="m5.67 98.86v5.26l9.78 5.76v-5.26z" fill="url(#o)"/><path d="m116.08 126v-82.27l-82.25-1.62v81.55a2.08 2.08 0 0 0 1.17 2.48l37.31 22.07c1.94 1.14 5.33 1 7.59-.24l34.29-19.32c1.37-.76 2-1.75 1.89-2.65z" fill="url(#p)"/><path d="m72.34 65.51-37.34-22.07c-1.93-1.14-1.67-3.1.59-4.37l34.32-19.32c2.25-1.27 5.65-1.38 7.58-.23l37.32 22.06c1.93 1.15 1.66 3.1-.59 4.38l-34.29 19.32c-2.26 1.27-5.66 1.37-7.59.23z" fill="url(#q)"/><path d="m65.9 117.74a5 5 0 0 0 -2.05-4l-27.77-16.43a1.38 1.38 0 0 0 -1.38-.13 1 1 0 0 0 -.17.1l-6.9 4.11 30.28 22.27 7-4.17a1.24 1.24 0 0 0 .43-.25 2.06 2.06 0 0 0 .56-1.5z" fill="url(#r)"/><path d="m56.66 123.47-27.76-16.4a4.92 4.92 0 0 1 -2-4c0-1.54 1-2.22 2.17-1.53l27.76 16.39a4.92 4.92 0 0 1 2 4c-.03 1.54-1 2.23-2.17 1.54z" fill="url(#s)"/><path d="m65.86 105.49a5 5 0 0 0 -2-4l-27.86-16.42a1.38 1.38 0 0 0 -1.38-.13 1 1 0 0 0 -.17.1l-6.9 4.11 30.28 22.27 7-4.17a1.24 1.24 0 0 0 .43-.25 2.07 2.07 0 0 0 .6-1.51z" fill="url(#t)"/><path d="m56.62 111.23-27.76-16.4a4.92 4.92 0 0 1 -2.05-4c0-1.53 1-2.22 2.17-1.53l27.76 16.4a4.92 4.92 0 0 1 2 4c.02 1.53-.95 2.21-2.12 1.53z" fill="url(#u)"/><path d="m65.94 93.29a5 5 0 0 0 -2-4l-27.82-16.43a1.4 1.4 0 0 0 -1.38-.13 1 1 0 0 0 -.17.1l-6.9 4.11 30.33 22.27 7-4.17a1 1 0 0 0 .43-.25 2 2 0 0 0 .51-1.5z" fill="url(#v)"/><path d="m56.7 99-27.76-16.38a4.92 4.92 0 0 1 -2.05-4c0-1.54 1-2.22 2.17-1.53l27.76 16.37a4.92 4.92 0 0 1 2 4c.02 1.54-.95 2.25-2.12 1.54z" fill="url(#w)"/><path d="m65.94 81.08a5 5 0 0 0 -2-4l-27.82-16.42a1.38 1.38 0 0 0 -1.38-.13 1 1 0 0 0 -.17.1l-6.9 4.1 30.33 22.27 7-4.17a1 1 0 0 0 .43-.25 2 2 0 0 0 .51-1.5z" fill="url(#x)"/><path d="m56.7 86.81-27.76-16.4a4.92 4.92 0 0 1 -2.05-4c0-1.54 1-2.22 2.17-1.53l27.76 16.4a4.92 4.92 0 0 1 2 4c.02 1.53-.95 2.22-2.12 1.53z" fill="url(#y)"/><path d="m110.2 66.19-26.02 15.02v-4.04l26.02-15.02z" fill="url(#z)"/><path d="m110.2 73.96-7.98 4.61v-4.04l7.98-4.61z" fill="url(#A)"/><path d="m99.18 80.32-15 8.66v-4.04l15-8.66z" fill="url(#B)"/><path d="m110.2 81.44-18.52 10.72v-4.05l18.52-10.72z" fill="url(#C)"/><path d="m88.65 93.91-4.47 2.55v-4.04l4.47-2.56z" fill="url(#D)"/><path d="m110.2 89.25-26.02 15.02v-4.04l26.02-15.02z" fill="url(#E)"/><path d="m110.2 97.05-7.98 4.61v-4.04l7.98-4.61z" fill="url(#F)"/><path d="m99.18 103.41-15 8.66v-4.04l15-8.66z" fill="url(#G)"/><path d="m110.2 104.53-18.52 10.72v-4.05l18.52-10.72z" fill="url(#H)"/><path d="m88.65 117-4.47 2.55v-4.04l4.47-2.56z" fill="url(#I)"/><path d="m110.2 111.93-26.02 15.02v-4.04l26.02-15.02z" fill="url(#J)"/><path d="m111.62 67.2-26.02 15.02v-4.05l26.02-15.02z" fill="url(#K)"/><path d="m111.62 74.97-7.98 4.61v-4.05l7.98-4.61z" fill="url(#L)"/><path d="m100.61 81.33-15.01 8.66v-4.04l15.01-8.67z" fill="url(#M)"/><path d="m111.62 82.44-18.52 10.72v-4.04l18.52-10.72z" fill="url(#N)"/><path d="m90.07 94.91-4.47 2.56v-4.05l4.47-2.55z" fill="url(#O)"/><path d="m111.62 90.26-26.02 15.02v-4.05l26.02-15.02z" fill="url(#P)"/><path d="m111.62 98.06-7.98 4.61v-4.05l7.98-4.61z" fill="url(#Q)"/><path d="m100.61 104.42-15.01 8.66v-4.04l15.01-8.67z" fill="url(#R)"/><path d="m111.62 105.53-18.52 10.72v-4.04l18.52-10.72z" fill="url(#S)"/><path d="m90.07 118-4.47 2.56v-4.05l4.47-2.55z" fill="url(#T)"/><path d="m111.62 112.94-26.02 15.02v-4.05l26.02-15.02z" fill="url(#U)"/><g fill="url(#V)"><path d="m72.34 58.83-37.34-22.07c-1.93-1.14-1.67-3.1.59-4.37l34.32-19.32c2.25-1.27 5.65-1.38 7.58-.24l37.32 22.07c1.93 1.14 1.66 3.1-.59 4.37l-34.29 19.32c-2.26 1.27-5.66 1.41-7.59.24z"/><path d="m72.34 58.83-37.34-22.07c-1.93-1.14-1.67-3.1.59-4.37l34.32-19.32c2.25-1.27 5.65-1.38 7.58-.24l37.32 22.07c1.93 1.14 1.66 3.1-.59 4.37l-34.29 19.32c-2.26 1.27-5.66 1.41-7.59.24z"/><path d="m72.34 58.83-37.34-22.07c-1.93-1.14-1.67-3.1.59-4.37l34.32-19.32c2.25-1.27 5.65-1.38 7.58-.24l37.32 22.07c1.93 1.14 1.66 3.1-.59 4.37l-34.29 19.32c-2.26 1.27-5.66 1.41-7.59.24z"/></g><path d="m86.11 6 1.47-2.08-3.76-2.26a3.77 3.77 0 0 0 -.48-.28h-.08a4.76 4.76 0 0 0 -4.47.55 11.39 11.39 0 0 0 -2.72 2.35l-2.49-1.53a4.85 4.85 0 0 0 -.49-.29c-1.62-.84-3.69-.69-5.93.64-5.11 3-9.18 11-9.09 17.82a13.13 13.13 0 0 0 .11 1.7 16.15 16.15 0 0 0 -4.77 11.2c0 2.36.77 4.08 2 4.94a2.54 2.54 0 0 0 .53.31l3.71 2.2 3.35-3.73-.2-.61 21.2-12.18c3.71-2.19 6.67-8 6.61-12.95-.02-3.89-1.91-6.1-4.5-5.8z" fill="url(#W)"/><path d="m76.06 4.24a11.39 11.39 0 0 1 2.72-2.35 4.76 4.76 0 0 1 4.47-.55h.08a3.77 3.77 0 0 1 .48.28l3.76 2.23-1.18 1.72-6.65 1.94z" fill="url(#X)"/><path d="m55.88 39.08a2.58 2.58 0 0 1 -.53-.32c-1.18-.86-1.92-2.58-2-4.94a16.18 16.18 0 0 1 4.77-11.2l4.29 2.55-.57 13.61-2.3 2.49z" fill="url(#Y)"/><path d="m90.29 8.52c-.54-4.4-3.59-6.23-7.23-4.08a12.08 12.08 0 0 0 -3.32 3.07c-1.58-3.09-4.72-4-8.31-1.87-5.1 3-9.17 11-9.09 17.83a14.93 14.93 0 0 0 .12 1.69 16.14 16.14 0 0 0 -4.77 11.2c.05 4.73 3 6.87 6.5 4.78l24.13-13.84c3.71-2.2 6.66-8 6.6-13-.05-3.9-1.98-6.12-4.63-5.78z" fill="url(#Z)"/><path d="m86.11 6 1.47-2.08-3.76-2.26a3.77 3.77 0 0 0 -.48-.28h-.08a4.76 4.76 0 0 0 -4.47.55 11.39 11.39 0 0 0 -2.72 2.35l-2.49-1.53a4.85 4.85 0 0 0 -.49-.29c-1.62-.84-3.69-.69-5.93.64-5.11 3-9.18 11-9.09 17.82a13.13 13.13 0 0 0 .11 1.7 16.15 16.15 0 0 0 -4.77 11.2c0 2.36.77 4.08 2 4.94a2.54 2.54 0 0 0 .53.31l3.71 2.2 3.35-3.73-.2-.61 21.2-12.18c3.71-2.19 6.67-8 6.61-12.95-.02-3.89-1.91-6.1-4.5-5.8z" fill="url(#aa)"/><path d="m76.06 4.24a11.39 11.39 0 0 1 2.72-2.35 4.76 4.76 0 0 1 4.47-.55h.08a3.77 3.77 0 0 1 .48.28l3.76 2.23-1.18 1.72-6.65 1.94z" fill="url(#X)"/><path d="m55.88 39.08a2.58 2.58 0 0 1 -.53-.32c-1.18-.86-1.92-2.58-2-4.94a16.18 16.18 0 0 1 4.77-11.2l4.29 2.55-.57 13.61-2.3 2.49z" fill="url(#Y)"/><path d="m90.29 8.52c-.54-4.4-3.59-6.23-7.23-4.08a12.08 12.08 0 0 0 -3.32 3.07c-1.58-3.09-4.72-4-8.31-1.87-5.1 3-9.17 11-9.09 17.83a14.93 14.93 0 0 0 .12 1.69 16.14 16.14 0 0 0 -4.77 11.2c.05 4.73 3 6.87 6.5 4.78l24.13-13.84c3.71-2.2 6.66-8 6.6-13-.05-3.9-1.98-6.12-4.63-5.78z" fill="url(#ab)"/><path d="m96.11 14 1-1.49-2.68-1.59a2.5 2.5 0 0 0 -.35-.21 3.41 3.41 0 0 0 -3.19.4 8 8 0 0 0 -1.95 1.68l-1.77-1.07-.35-.2a4.33 4.33 0 0 0 -4.24.46c-3.65 2.16-6.56 7.86-6.5 12.74a11.65 11.65 0 0 0 .09 1.22 11.5 11.5 0 0 0 -3.41 8 4.3 4.3 0 0 0 1.39 3.53 2.4 2.4 0 0 0 .38.23l2.65 1.57 2.45-2.67-.14-.44 15.16-8.7c2.65-1.57 4.77-5.71 4.72-9.26-.05-2.87-1.37-4.45-3.26-4.2z" fill="url(#ac)"/><path d="m88.93 12.71a8 8 0 0 1 1.95-1.71 3.41 3.41 0 0 1 3.19-.4 2.5 2.5 0 0 1 .35.21l2.68 1.59-.84 1.2-4.7 1.4z" fill="url(#ad)"/><path d="m74.51 37.61a1.83 1.83 0 0 1 -.38-.23 4.29 4.29 0 0 1 -1.39-3.53 11.52 11.52 0 0 1 3.41-8l3.06 1.82-.41 9.73-1.64 1.78z" fill="url(#ae)"/><path d="m99.1 15.77c-.38-3.15-2.56-4.46-5.16-2.92a8.71 8.71 0 0 0 -2.38 2.15c-1.13-2.21-3.37-2.85-5.94-1.33-3.64 2.16-6.55 7.86-6.49 12.74a9.49 9.49 0 0 0 .08 1.22 11.49 11.49 0 0 0 -3.41 8c0 3.38 2.12 4.91 4.65 3.41l17.24-9.89c2.65-1.57 4.77-5.72 4.72-9.26-.03-2.78-1.41-4.37-3.31-4.12z" fill="url(#af)"/><path d="m96.11 14 1-1.49-2.68-1.59a2.5 2.5 0 0 0 -.35-.21 3.41 3.41 0 0 0 -3.19.4 8 8 0 0 0 -1.95 1.68l-1.77-1.07-.35-.2a4.33 4.33 0 0 0 -4.24.46c-3.65 2.16-6.56 7.86-6.5 12.74a11.65 11.65 0 0 0 .09 1.22 11.5 11.5 0 0 0 -3.41 8 4.3 4.3 0 0 0 1.39 3.53 2.4 2.4 0 0 0 .38.23l2.65 1.57 2.45-2.67-.14-.44 15.16-8.7c2.65-1.57 4.77-5.71 4.72-9.26-.05-2.87-1.37-4.45-3.26-4.2z" fill="url(#ac)"/><path d="m88.93 12.71a8 8 0 0 1 1.95-1.71 3.41 3.41 0 0 1 3.19-.4 2.5 2.5 0 0 1 .35.21l2.68 1.59-.84 1.2-4.7 1.4z" fill="url(#ad)"/><path d="m74.51 37.61a1.83 1.83 0 0 1 -.38-.23 4.29 4.29 0 0 1 -1.39-3.53 11.52 11.52 0 0 1 3.41-8l3.06 1.82-.41 9.73-1.64 1.78z" fill="url(#ae)"/><path d="m99.1 15.77c-.38-3.15-2.56-4.46-5.16-2.92a8.71 8.71 0 0 0 -2.38 2.15c-1.13-2.21-3.37-2.85-5.94-1.33-3.64 2.16-6.55 7.86-6.49 12.74a9.49 9.49 0 0 0 .08 1.22 11.49 11.49 0 0 0 -3.41 8c0 3.38 2.12 4.91 4.65 3.41l17.24-9.89c2.65-1.57 4.77-5.72 4.72-9.26-.03-2.78-1.41-4.37-3.31-4.12z" fill="url(#af)"/></svg>