<?xml version="1.0" encoding="utf-8"?>
<!-- Generator: Adobe Illustrator 26.0.3, SVG Export Plug-In . SVG Version: 6.00 Build 0)  -->
<svg version="1.1" id="图层_1" xmlns="http://www.w3.org/2000/svg" xmlns:xlink="http://www.w3.org/1999/xlink" x="0px" y="0px"
	 viewBox="0 0 480 483" style="enable-background:new 0 0 480 483;" xml:space="preserve">
<style type="text/css">
	.st0{fill:#D71718;}
</style>
<path class="st0" d="M432,32h16v16h-16V32z"/>
<path class="st0" d="M400,32h16v16h-16V32z"/>
<path class="st0" d="M368,32h16v16h-16V32z"/>
<path class="st0" d="M88,352c-22.1,0-40,17.9-40,40s17.9,40,40,40s40-17.9,40-40S110.1,352,88,352z M88,416c-13.3,0-24-10.7-24-24
	s10.7-24,24-24s24,10.7,24,24S101.3,416,88,416z"/>
<path class="st0" d="M352,392c0,22.1,17.9,40,40,40s40-17.9,40-40s-17.9-40-40-40S352,369.9,352,392z M392,368c13.3,0,24,10.7,24,24
	s-10.7,24-24,24s-24-10.7-24-24S378.7,368,392,368z"/>
<path class="st0" d="M288,264h-40v-56c0-4.4-3.6-8-8-8c-3,0-5.8,1.7-7.2,4.4l-48,96c-2,4-0.4,8.8,3.6,10.7c1.1,0.6,2.3,0.8,3.6,0.8
	h40v56c0,4.4,3.6,8,8,8c3,0,5.8-1.7,7.2-4.4l48-96c2-4,0.4-8.8-3.6-10.7C290.5,264.3,289.2,264,288,264z M248,334.1V304
	c0-4.4-3.6-8-8-8h-35.1l27.1-54.1V272c0,4.4,3.6,8,8,8h35.1L248,334.1z"/>
<circle class="st0" cx="246" cy="72" r="8"/>
<path class="st0" d="M456,288c13.2,0,24-10.8,24-24V24c0-13.2-10.8-24-24-24H184c-13.2,0-24,10.8-24,24v113.6l-65.8,14.6
	c-3.6,0.9-6.2,4.1-6.2,7.8v34.3l0,0c0,0.1,0,0.2,0,0.3c0,4.4,3.6,8,8,8s8-3.6,8-8c0-0.1,0-0.2,0-0.3l0,0v-27.9l136-30.2l136,30.2
	v137.8c-3.7,0.3-6.7,3.2-7.2,6.9l-2.4,19.2l-6.4-5v-53c0-0.1,0-0.1,0-0.2c0-4.4-3.6-8-8-8s-8,3.6-8,8c0,0.1,0,0.1,0,0.2v44.9
	c-1.3,0.3-2.5,1-3.4,1.9L319,340.6c-2.9,2.8-3.1,7.4-0.7,10.6l11.9,15.3l-19.2,2.4c-4,0.5-7,4-7,8v14.1
	c-19.8,15.8-41.2,29.3-64,40.3c-17.9-8.7-35.1-18.9-51.3-30.5c-5-3.6-9-6.8-12.7-9.8v-14.1c0-4-3-7.5-7-8l-19.2-2.4l11.9-15.3
	c2.5-3.2,2.1-7.7-0.7-10.6L139.4,319c-0.9-1-2.1-1.6-3.4-1.9V190.5l104-22.3l104,22.3v30c0,0.1,0,0.1,0,0.2c0,4.4,3.6,8,8,8
	s8-3.6,8-8c0-0.1,0-0.1,0-0.2V184c0-3.8-2.6-7-6.3-7.8l-112-24c-1.1-0.2-2.3-0.2-3.4,0l-112,24c-3.7,0.8-6.3,4.1-6.3,7.8v141.3
	l-6.4,5l-2.4-19.3c-0.5-3.7-3.5-6.6-7.2-6.9v-56.7c0-4.4-3.6-8-8-8s-8,3.6-8,8v0.1l0,0V304H72.8c-4,0-7.5,3-8,7l-2.4,19.2
	l-15.3-11.9c-3.2-2.5-7.7-2.1-10.6,0.7L15,340.6c-2.9,2.8-3.2,7.4-0.7,10.6l12,15.3L7,368.8c-4,0.5-7,4-7,8v30.4c0,4,3,7.5,7,8
	l19.2,2.4l-11.9,15.3c-2.5,3.2-2.2,7.7,0.7,10.6L36.6,465c2.8,2.9,7.4,3.2,10.6,0.7l15.3-12l2.4,19.3c0.5,4,4,7,8,7h30.4
	c4,0,7.5-3,8-7l2.4-19.2l15.3,11.9c3.2,2.5,7.7,2.1,10.6-0.7l21.6-21.6c0.6-0.6,1.1-1.3,1.5-2.1c19.2,13.6,39.7,25.4,61.2,35.1
	l13,5.8c2.1,1,4.5,1,6.6,0l13-5.8c21.5-9.7,42-21.5,61.2-35.1c0.4,0.8,0.9,1.5,1.5,2.1l21.6,21.6c2.8,2.9,7.4,3.2,10.6,0.7
	l15.3-11.9l2.4,19.2c0.5,4,4,7,8,7h30.4c4,0,7.5-3,8-7l2.4-19.2l15.3,11.9c3.2,2.5,7.7,2.1,10.6-0.7l21.6-21.6
	c2.9-2.8,3.2-7.4,0.7-10.6l-12-15.3l19.2-2.4c4-0.5,7-4,7-8v-30.4c0-4-3-7.5-7-8l-19.2-2.4l11.9-15.3c2.5-3.2,2.1-7.7-0.7-10.6
	L443.4,319c-2.8-2.9-7.4-3.2-10.6-0.7l-15.3,12l-2.4-19.3c-0.5-4-4-7-8-7H392v-16H456z M133.1,448.7L118,437
	c-2.4-1.9-5.7-2.3-8.4-0.9c-1.8,0.9-3.8,1.7-5.7,2.4c-2.9,1-5,3.5-5.4,6.6l-2.4,19H79.8l-2.4-19c-0.4-3-2.5-5.6-5.4-6.6
	c-1.9-0.7-3.8-1.5-5.7-2.4c-2.7-1.4-6-1-8.4,0.9l-15.1,11.7l-11.6-11.6L43,422c1.9-2.4,2.3-5.7,0.9-8.4c-0.9-1.8-1.7-3.8-2.4-5.7
	c-1-2.9-3.5-4.9-6.5-5.4l-19-2.4v-16.3l19-2.4c3-0.4,5.6-2.5,6.6-5.4c0.7-1.9,1.5-3.8,2.4-5.7c1.3-2.8,0.9-6-1-8.4l-11.7-15.1
	l11.6-11.6L58,347c2.4,1.9,5.7,2.3,8.4,0.9c1.8-0.9,3.8-1.7,5.7-2.4c2.9-1,4.9-3.5,5.4-6.5l2.4-19h16.3l2.4,19
	c0.4,3,2.5,5.6,5.4,6.6c1.9,0.7,3.8,1.5,5.7,2.4c2.8,1.3,6,0.9,8.4-1l15.1-11.8l11.6,11.6L133,362c-1.9,2.4-2.3,5.7-0.9,8.4
	c0.9,1.8,1.7,3.8,2.4,5.7c1,2.9,3.5,5,6.6,5.4l19,2.4v16.3l-19,2.4c-3,0.4-5.6,2.5-6.6,5.4c-0.7,1.9-1.5,3.8-2.4,5.7
	c-1.4,2.7-1,6,0.9,8.4l11.8,15.1L133.1,448.7z M249.7,461.9L249.7,461.9l-9.7,4.3l-9.8-4.3c-26.3-12-51-27.1-73.6-45.2l12.4-1.5
	c2.7-0.4,5-2.1,6.2-4.6c1.3,1,2.6,2,4.1,3c18.1,12.9,37.3,24.2,57.4,33.6c2.1,1,4.5,1,6.6,0c21.7-10.1,42.3-22.4,61.6-36.6
	c1.1,2.5,3.4,4.2,6.1,4.6l12.3,1.5C300.8,434.8,276,450,249.7,461.9z M400.2,320l2.4,19c0.4,3,2.5,5.6,5.4,6.6
	c1.9,0.7,3.8,1.5,5.7,2.4c2.8,1.3,6,0.9,8.4-1l15.1-11.8l11.6,11.6L437,362c-1.9,2.4-2.3,5.7-0.9,8.4c0.9,1.8,1.7,3.8,2.4,5.7
	c1,2.9,3.5,5,6.6,5.4l19,2.4v16.3l-19,2.4c-3,0.4-5.6,2.5-6.6,5.4c-0.7,1.9-1.5,3.8-2.4,5.7c-1.4,2.7-1,6,0.9,8.4l11.8,15.1
	l-11.6,11.6L422,437c-2.4-1.9-5.7-2.3-8.4-0.9c-1.8,0.9-3.8,1.7-5.7,2.4c-2.9,1-5,3.5-5.4,6.6l-2.4,19h-16.3l-2.4-19
	c-0.4-3-2.5-5.6-5.4-6.6c-1.9-0.7-3.8-1.5-5.7-2.4c-2.7-1.4-6-1-8.4,0.9l-15.1,11.8l-11.6-11.6L347,422c1.9-2.4,2.3-5.7,0.9-8.4
	c-0.9-1.8-1.7-3.8-2.4-5.7c-1-2.9-3.5-5-6.6-5.4l-19-2.4v-16.3l19-2.4c3-0.4,5.6-2.5,6.6-5.4c0.7-1.9,1.5-3.8,2.4-5.7
	c1.4-2.7,1-6-0.9-8.4l-11.8-15.1l11.6-11.6L362,347c2.4,1.9,5.7,2.3,8.4,0.9c1.8-0.9,3.8-1.7,5.7-2.4c2.9-1,5-3.5,5.4-6.6l2.4-19
	L400.2,320z M385.8,152.2l-144-32c-1.2-0.2-2.4-0.2-3.5,0L176,134V80h40.7c0.3,0,0.6,0,0.8,0c4.4,0,8-3.6,8-8s-3.6-8-8-8l0,0l0,0
	H176V24c0-4.4,3.6-8,8-8h272c4.4,0,8,3.6,8,8v40H279.4c-4.4,0-8,3.6-7.9,8.1s3.6,8,8.1,7.9h0.4h184v184c0,4.4-3.6,8-8,8h-64V160
	C392,156.3,389.4,153,385.8,152.2z"/>
<circle class="st0" cx="352" cy="249.3" r="8"/>
<circle class="st0" cx="96" cy="216.2" r="8"/>
</svg>
