<?xml version="1.0" encoding="utf-8"?>
<!-- Generator: Adobe Illustrator 26.0.3, SVG Export Plug-In . SVG Version: 6.00 Build 0)  -->
<svg version="1.1" id="Layer_5" xmlns="http://www.w3.org/2000/svg" xmlns:xlink="http://www.w3.org/1999/xlink" x="0px" y="0px"
	 viewBox="0 0 496 496" style="enable-background:new 0 0 496 496;" xml:space="preserve">
<style type="text/css">
	.st0{fill:#D71718;}
</style>
<path class="st0" d="M448,200h16v16h-16V200z"/>
<path class="st0" d="M448,168h16v16h-16V168z"/>
<path class="st0" d="M448,136h16v16h-16V136z"/>
<path class="st0" d="M240,200h16v16h-16V200z"/>
<path class="st0" d="M272,200h16v16h-16V200z"/>
<path class="st0" d="M440.9,315.8c-1.4-4.2-5.9-6.4-10.1-5c-4.2,1.4-6.4,5.9-5,10.1c0.1,0.2,0.2,0.4,0.3,0.7
	c16.9,40.8-2.5,87.5-43.3,104.3c-2.1,0.9-4.2,1.6-6.4,2.3l0,0c-4.3,1.2-6.8,5.6-5.6,9.8c1,3.5,4.1,5.9,7.7,5.9c1,0,1.9-0.2,2.8-0.5
	l0,0c39.7-12.7,66.7-49.7,66.8-91.4C448,339.6,445.6,327.3,440.9,315.8z"/>
<circle class="st0" cx="35.9" cy="216" r="8"/>
<path class="st0" d="M176,388.5c-0.3-4.5-4.1-7.9-8.5-7.6c-4.5,0.3-7.9,4.1-7.6,8.5c0,0.4,0.1,0.7,0.1,1.1V460c0,11-9,20-20,20
	s-20-9-20-20V304h24V176H48v32H35.9v16H100c6.6,0,12,5.4,12,12s-5.4,12-12,12H40c-13.3,0-24-10.7-24-24l0,0v-6.4
	c0.1-0.5,0.2-1.1,0.2-1.6c-0.2-4.5-3.9-8-8.4-7.8c-4.2,0.1-7.7,3.6-7.8,7.8v8c0,22.1,17.9,40,40,40h8v196
	c-0.1,19.8,15.9,35.9,35.7,36c11,0,21.5-5,28.3-13.7c12.3,15.5,34.8,18.2,50.3,6C171,481.5,176,471,176,460V388.5z M104,460
	c0,11-9,20-20,20s-20-9-20-20V304h40V460z M64,288v-24h36c15.5,0,28-12.5,28-28s-12.5-28-28-28l0,0H64v-16h64v96H64z"/>
<path class="st0" d="M496,208v-88c0-22.1-17.9-40-40-40h-27.6c-3.6-11.6-9.9-22.3-18.4-31.1l-0.2-0.2l-0.1-0.1l0,0
	c-3.3-2.9-8.4-2.6-11.3,0.7c-2.9,3.3-2.6,8.4,0.7,11.3l0,0c23.9,25.9,22.3,66.3-3.6,90.3c-1.3,1.2-2.6,2.3-3.9,3.3
	c-4.7,3.7-8.6,8.4-11.3,13.8H360v-33.1c17.1-4.4,27.4-21.9,23-39s-21.9-27.4-39-23c-17.1,4.4-27.4,21.9-23,39
	c2.9,11.3,11.7,20.1,23,23V168h-20.2c-2.5-5.2-6.2-9.8-10.8-13.4c-1.2-1-2.4-2-3.5-3.1c1.7-3.6,2.5-7.6,2.5-11.5
	c0-13.7-9.9-25.3-23.4-27.5c-0.4-2.7-0.6-5.5-0.6-8.2c-0.1-34.4,27.7-63.2,62-64.2c4.1-0.2,8.3,0.1,12.4,0.8l0,0
	c0.8,0.3,1.6,0.4,2.4,0.4c4.4,0.3,8.2-3,8.5-7.4c0.3-4.4-3-8.2-7.4-8.6l0,0c-5.4-0.9-10.9-1.3-16.4-1.2c-34.5,1-63.7,24.5-73.7,56
	H248c-19,0-35.4,13.4-39.2,32h-54.6c26.6-23.3,29.2-63.8,5.9-90.3S96.3-7.5,69.7,15.8s-29.2,63.8-5.9,90.3c2.4,2.7,5,5.2,7.7,7.4
	c-32.4,6.2-58.6,30-68,61.6l0,0c-0.3,0.9-0.5,1.8-0.5,2.7c0,4.5,3.6,8.1,8.1,8.1c4.1,0,7.6-3.1,8-7.2c9.3-30.2,37.2-50.7,68.8-50.8
	h196c6.6,0,12,5.4,12,12s-5.4,12-12,12H160v182.4c-0.1,0.5-0.2,1.1-0.2,1.6c0,4.5,3.6,8.1,8,8.1c4.3,0,7.8-3.3,8.1-7.5l0,0V168h32
	v40c0,22.1,17.9,40,40,40h4.4l-23.6,23.6l11.4,18.4c-4.7,8.4-8.4,17.4-11,26.6l-21.1,5v60.7l21.1,5c2.6,9.3,6.3,18.2,11,26.6
	l-11.4,18.4l42.9,42.9l18.4-11.4c8.4,4.7,17.4,8.4,26.6,11l5,21.1h60.7l5-21.1c9.3-2.7,18.2-6.4,26.6-11.1l18.4,11.4l42.9-42.9
	L463.9,414c4.7-8.4,8.4-17.4,11-26.6l21.1-5v-60.7l-21.1-5c-2.7-9.3-6.4-18.2-11-26.6l11.4-18.4L451.6,248h4.4
	C478.1,248,496,230.1,496,208z M112,112c-26.5,0-48-21.5-48-48s21.5-48,48-48s48,21.5,48,48C160,90.5,138.5,112,112,112z M225.5,112
	c3.4-9.6,12.4-16,22.5-16h24.4c-0.3,2.8-0.4,5.5-0.4,8.3c0,2.6,0.2,5.2,0.5,7.7H225.5z M336,104c0-8.8,7.2-16,16-16s16,7.2,16,16
	s-7.2,16-16,16S336,112.8,336,104z M376.1,184c0,0.6-0.1,1.2-0.1,1.8v6.2c0,4.4-3.6,8-8,8h-32c-4.4,0-8-3.6-8-8v-6.2
	c0-0.6-0.1-1.2-0.1-1.8H376.1z M455,274l-9.8,15.9l2.5,4.2c5.9,9.7,10.3,20.2,13,31.2l1.2,4.8l18.1,4.3v35.3l-18.2,4.3l-1.2,4.8
	c-2.7,11-7.1,21.6-13,31.2l-2.5,4.2L455,430l-25,25l-15.9-9.8l-4.2,2.5c-9.7,5.9-20.2,10.2-31.2,12.9l-4.8,1.2l-4.3,18.2h-35.3
	l-4.3-18.2l-4.8-1.2c-11-2.7-21.5-7.1-31.2-12.9l-4.2-2.5L274,455l-25-25l9.8-15.9l-2.5-4.2c-5.9-9.7-10.3-20.2-13-31.2l-1.1-4.7
	l-18.2-4.3v-35.3l18.2-4.3l1.2-4.8c2.7-11,7.1-21.6,13-31.2l2.5-4.2L249,274l26-26h40.4l7.2,12.7c-50.5,16.3-78.1,70.4-61.9,120.9
	c9.4,29.1,32.1,52,61.2,61.6c0.6,0.3,1.2,0.5,1.8,0.6h0.1l0,0c0.5,0.1,1,0.1,1.5,0.1c4.4,0,8-3.5,8.1-7.9c0-3.6-2.3-6.7-5.8-7.8l0,0
	c-42.1-13.5-65.2-58.6-51.7-100.6c8.2-25.7,28.9-45.4,54.8-52.6l8.2,14.4c-34.6,7.2-56.8,41.1-49.7,75.7
	c7.2,34.6,41.1,56.8,75.7,49.7c34.6-7.2,56.8-41.1,49.7-75.7c-5.2-25-24.7-44.5-49.7-49.7l8.2-14.4c8.1,2.2,15.8,5.7,22.8,10.4
	c3.4,2.8,8.5,2.2,11.2-1.2c2.8-3.4,2.2-8.5-1.2-11.2c-0.3-0.2-0.6-0.4-0.9-0.6l0,0c-7.3-4.9-15.3-8.7-23.7-11.4l7.3-12.7H429
	L455,274z M352,304c26.5,0,48,21.5,48,48s-21.5,48-48,48s-48-21.5-48-48C304,325.5,325.5,304,352,304z M379.4,232L352,279.9
	L324.6,232H248c-13.3,0-24-10.7-24-24v-40h60c5.3,0,10.5-1.5,14.9-4.4c1.4,1.2,2.8,2.5,4.3,3.7c5.6,4.5,8.9,11.3,8.8,18.5v6.2
	c0,13.3,10.7,24,24,24h32c13.3,0,24-10.7,24-24v-6.2c0-7.5,3.5-14.5,9.4-19c19.3-15.1,30.6-38.3,30.6-62.8c0-2.7-0.1-5.4-0.4-8H456
	c13.3,0,24,10.7,24,24v88c0,13.3-10.7,24-24,24H379.4z"/>
</svg>
