<?xml version="1.0" encoding="utf-8"?>
<!-- Generator: Adobe Illustrator 26.0.3, SVG Export Plug-In . SVG Version: 6.00 Build 0)  -->
<svg version="1.1" id="Capa_1" xmlns="http://www.w3.org/2000/svg" xmlns:xlink="http://www.w3.org/1999/xlink" x="0px" y="0px"
	 viewBox="0 0 512 472.3" style="enable-background:new 0 0 512 472.3;" xml:space="preserve">
<style type="text/css">
	.st0{fill:#D71718;}
</style>
<path class="st0" d="M496.2,400.6h-12.4V175.3c36.1-34.1,37.7-91,3.6-127.1c-32.5-34.4-86.2-37.7-122.7-7.4
	c-3.1,2.7-3.5,7.5-0.8,10.6c2.6,3.1,7.2,3.5,10.4,0.9c31.8-26.4,79-22.1,105.5,9.7s22.1,79-9.7,105.5s-79,22.1-105.5-9.7
	c-11.2-13.5-17.3-30.4-17.3-47.9c0-11.3,2.5-22.4,7.4-32.5c1.7-3.8,0-8.2-3.8-9.9c-3.6-1.6-7.9-0.1-9.8,3.4
	c-5.9,12.2-8.9,25.5-8.9,39.1c0,1.8,0.1,3.6,0.2,5.3h-44.7v-94c0-11.7-9.5-21.3-21.3-21.3H133.8c-11.7,0-21.3,9.5-21.3,21.3v94H48.9
	c-11.4,0-20.6,9.2-20.6,20.6V313c-0.2,4.1,3,7.7,7.1,7.9c4.1,0.2,7.7-3,7.9-7.1c0-0.3,0-0.5,0-0.8V135.9c0-3.1,2.5-5.6,5.6-5.6h0
	h63.6v22.1H81.3c-10.8,0-19.5,8.7-19.5,19.5v187.2c0,10.8,8.7,19.5,19.5,19.5h349.4c10.8,0,19.5-8.7,19.5-19.5V195.3
	c6.5-2.1,12.6-5,18.5-8.5v213.8H43.3v-53c-0.2-4.1-3.7-7.3-7.9-7.1c-3.8,0.2-6.9,3.3-7.1,7.1v53H15.7c-8.7,0-15.7,7-15.7,15.7v23
	c0,18.2,14.8,33,33,33h445.9c18.2,0,33-14.8,33-33v-23C511.9,407.6,504.8,400.6,496.2,400.6L496.2,400.6z M287.7,130.3h46.9
	c1.8,7.7,4.6,15.1,8.3,22.1h-55.2V130.3z M234.9,15l-2.2,9.8c-0.1,0.5-0.6,0.9-1.1,0.8h-63c-0.5,0-1-0.3-1.1-0.8l-2.2-9.8H234.9z
	 M127.6,21.3c0-3.5,2.8-6.2,6.3-6.2l0,0h16.1l3,13.1c1.6,7.4,8.2,12.6,15.7,12.6h63c7.6,0.1,14.1-5.2,15.7-12.6l3-13.1h16.1
	c3.5,0,6.2,2.8,6.2,6.2l0,0V223H127.6V21.3z M127.6,238h145.1v25c0,3.5-2.8,6.2-6.2,6.2H133.8c-3.5,0-6.2-2.8-6.2-6.2L127.6,238z
	 M435.2,359c0,2.5-2,4.5-4.5,4.5H81.3c-2.5,0-4.5-2-4.5-4.5V171.8c0-2.5,2-4.5,4.5-4.5h31.2v95.7c0,11.7,9.5,21.3,21.3,21.3h132.6
	c11.7,0,21.3-9.5,21.3-21.3v-95.7H353c20,24.2,51.2,36.1,82.3,31.5L435.2,359L435.2,359z M231.2,415.6h49.5v11.6h-49.5V415.6z
	 M496.8,439.3c0,9.9-8,17.9-18,18H33c-9.9,0-18-8-18-18v-23c0-0.4,0.3-0.7,0.7-0.7h200.5v12.8c0,7.7,6.2,13.9,13.9,13.9h51.9
	c7.6,0,13.8-6.2,13.9-13.9v-12.8h200.5c0.4,0,0.7,0.3,0.7,0.7V439.3z"/>
<path class="st0" d="M398,151.9c5.9,5.9,15.6,5.9,21.5,0l51.6-51.6c8.3-8.5,8.1-22.2-0.4-30.5c-8.4-8.2-21.7-8.2-30.1,0l0,0
	l-31.9,31.8l-5.1-5.1c-8.4-8.4-22.1-8.4-30.5,0c-8.4,8.4-8.4,22.1,0,30.5l0,0L398,151.9z M383.8,107.2c2.6-2.6,6.7-2.6,9.3,0
	c0,0,0,0,0,0l9.8,9.8c3.3,3.2,8.5,3.2,11.8,0l36.6-36.6c2.5-2.7,6.6-2.8,9.3-0.3c2.7,2.5,2.8,6.6,0.3,9.3c-0.1,0.1-0.2,0.2-0.3,0.3
	l-51.6,51.6c-0.1,0.1-0.2,0.1-0.3,0l-24.8-24.8C381.2,113.9,381.2,109.7,383.8,107.2L383.8,107.2z"/>
<circle class="st0" cx="160.1" cy="134.3" r="11.6"/>
<circle class="st0" cx="200.2" cy="134.3" r="11.6"/>
<circle class="st0" cx="240.1" cy="134.3" r="11.6"/>
</svg>
