<?xml version="1.0" encoding="utf-8"?>
<!-- Generator: Adobe Illustrator 26.0.3, SVG Export Plug-In . SVG Version: 6.00 Build 0)  -->
<svg version="1.1" id="Layer_1" xmlns="http://www.w3.org/2000/svg" xmlns:xlink="http://www.w3.org/1999/xlink" x="0px" y="0px"
	 viewBox="0 0 512 512" style="enable-background:new 0 0 512 512;" xml:space="preserve">
<style type="text/css">
	.st0{fill:#D71718;}
</style>
<path class="st0" d="M256,300.9c-16,0-29,13-29,29s13,29,29,29s29-13,29-29l0,0l0,0C285,313.9,272,300.9,256,300.9z M256,343.1
	c-7.3,0-13.2-5.9-13.2-13.2c0-7.3,5.9-13.2,13.2-13.2c7.3,0,13.2,5.9,13.2,13.2l0,0C269.2,337.2,263.3,343.1,256,343.1z"/>
<polygon class="st0" points="73.9,79.2 73.9,176.8 89.7,176.8 89.7,95 129.3,95 129.3,79.2 "/>
<rect x="73.9" y="192.7" class="st0" width="15.8" height="21.1"/>
<polygon class="st0" points="422.3,203.2 422.3,232.2 382.7,232.2 382.7,248.1 438.1,248.1 438.1,203.2 "/>
<path class="st0" d="M493.5,0H18.5C8.3,0,0,8.3,0,18.5v34.3l0,0V53c0.2,4.4,3.8,7.8,8.2,7.6c4.2-0.1,7.5-3.5,7.6-7.6v-0.2l0,0V18.5
	c0-1.4,1.2-2.6,2.6-2.6h475.1c1.4,0,2.6,1.2,2.6,2.6v250.7H475V37h-58.6c-4.4,0.4-7.6,4.2-7.2,8.6c0.3,3.8,3.4,6.9,7.2,7.2h42.8
	v216.4H358.9v-190H248.1v190h-15.8v-99.3l-39.6-92.4l-39.6,92.4v99.3H52.8V52.8h290.4c4.4,0,7.9-3.5,7.9-7.9s-3.5-7.9-7.9-7.9H37
	v232.2H15.8v-168l0,0V101c0-4.4-3.5-7.9-7.9-7.9C3.5,93.1,0,96.6,0,101v0.2l0,0v276.2c0,10.2,8.3,18.5,18.5,18.5h36.2
	c4.4,0,7.9-3.5,7.9-7.9c0-4.4-3.5-7.9-7.9-7.9H18.5c-1.4,0-2.6-1.2-2.6-2.6V285h480.3v92.4l0,0c0,1.4-1.2,2.6-2.6,2.6H126.5
	c-4.4,0.3-7.6,4.2-7.3,8.5c0.3,3.9,3.4,6.9,7.3,7.3h42.5v58.1h-24.7L129.7,512h252.5l-14.5-58.1h-24.7v-58.1h150.4
	c10.2,0,18.5-8.3,18.5-18.5V18.5C512,8.3,503.7,0,493.5,0z M192.7,117.8l19.7,45.9H173L192.7,117.8z M184.7,269.2h-15.8v-89.7h15.8
	V269.2z M216.4,269.2h-15.8v-89.7h15.8V269.2z M343.1,269.2h-79.2v-26.4h29V227h-29v-37h44.9v-15.8h-44.9v-36.9h29v-15.8h-29V95
	h79.2L343.1,269.2z M184.7,395.9h142.5v58.1H184.7V395.9z M355.4,469.8l6.6,26.4H150l6.6-26.4H355.4z"/>
</svg>
