<?xml version="1.0" encoding="utf-8"?>
<!-- Generator: Adobe Illustrator 26.0.3, SVG Export Plug-In . SVG Version: 6.00 Build 0)  -->
<svg version="1.1" id="圖層_1" xmlns="http://www.w3.org/2000/svg" xmlns:xlink="http://www.w3.org/1999/xlink" x="0px" y="0px"
	 viewBox="0 0 150 150" style="enable-background:new 0 0 150 150;" xml:space="preserve">
<style type="text/css">
	.st0{fill:none;}
	.st1{fill:#D71718;}
</style>
<g transform="translate(1361.421 1403)">
	<g transform="translate(-0.421 0)">
		<rect x="-1341" y="-1383" class="st0" width="110" height="110"/>
		<g transform="translate(3.497 3.039)">
			<path class="st1" d="M-1325.9-1330.7v-0.8c0-20.1,16.3-36.4,36.4-36.4c20.1,0,36.4,16.3,36.4,36.4c0,9.2-3.4,18-9.7,24.7l2.2,2
				c14.8-16,13.8-40.9-2.2-55.7s-40.9-13.8-55.7,2.2c-6.5,7.1-10.3,16.3-10.5,26l-4.5,3.2l-4.5-3.2c0.2-12.1,4.9-23.7,13.2-32.5
				l-2.2-2.1c-9,9.5-14,22.2-14,35.3v0.8l7.5,5.4L-1325.9-1330.7z"/>
			<path class="st1" d="M-1253.1-1367.9c-19.7-19.7-51.5-20.2-71.7-1.1l2.1,2.2c19.5-18.4,50.2-17.4,68.5,2.1
				c18.4,19.5,17.4,50.2-2.1,68.5c-8.2,7.8-18.9,12.4-30.2,13.1l3.2-4.4l-3.3-4.6c8.9-0.6,17.3-4.3,23.9-10.4l-2-2.2
				c-6.7,6.2-15.5,9.7-24.7,9.7h-2.9l5.4,7.5l-5.4,7.5h2.9c28.4,0,51.5-23,51.5-51.5C-1238-1345.1-1243.4-1358.3-1253.1-1367.9
				L-1253.1-1367.9z"/>
			<path class="st1" d="M-1311.8-1305h-7.8v-9.2h-3v12.2h10.8v9.2h3v-21.4h-3V-1305z"/>
			<path class="st1" d="M-1339.5-1311.2h10.8v6.2h-10.8v12.2h13.9v-3h-10.8v-6.2h10.8v-12.2h-13.9V-1311.2z"/>
			<path class="st1" d="M-1299.9-1309.6h-2.9v-4.6h-3v12.2h3v-4.6h2.9v4.6h3v-12.2h-3V-1309.6z"/>
			<path class="st1" d="M-1283.5-1331.5c0-1.1-0.3-2.1-0.8-3.1l13.5-13.5l-2.1-2.1l-13.5,13.5c-1.9-1.1-4.2-1.1-6.1,0l-7.8-7.8
				l-2.1,2.1l7.8,7.8c-1.7,2.9-0.7,6.6,2.1,8.3c2.9,1.7,6.6,0.7,8.3-2.1C-1283.7-1329.4-1283.5-1330.4-1283.5-1331.5L-1283.5-1331.5
				z M-1292.5-1331.5c0-1.7,1.4-3,3-3s3,1.4,3,3s-1.4,3-3,3C-1291.2-1328.5-1292.5-1329.8-1292.5-1331.5L-1292.5-1331.5z"/>
			<path class="st1" d="M-1269.1-1354l2.1-2.1l2.1,2.1l-2.1,2.1L-1269.1-1354z"/>
			<path class="st1" d="M-1269.1-1308.9l2.1-2.1l2.1,2.1l-2.1,2.1L-1269.1-1308.9z"/>
			<path class="st1" d="M-1259.1-1333h3v3h-3V-1333z"/>
			<path class="st1" d="M-1314.2-1354l2.1-2.1l2.1,2.1l-2.1,2.1L-1314.2-1354z"/>
			<path class="st1" d="M-1291-1301.1h3v3h-3V-1301.1z"/>
			<path class="st1" d="M-1291-1364.9h3v3h-3V-1364.9z"/>
			<path class="st1" d="M-1322.9-1333h3v3h-3V-1333z"/>
		</g>
	</g>
</g>
</svg>
