<?xml version="1.0" encoding="utf-8"?>
<!-- Generator: Adobe Illustrator 26.0.3, SVG Export Plug-In . SVG Version: 6.00 Build 0)  -->
<svg version="1.1" id="圖層_1" xmlns="http://www.w3.org/2000/svg" xmlns:xlink="http://www.w3.org/1999/xlink" x="0px" y="0px"
	 viewBox="0 0 150 150" style="enable-background:new 0 0 150 150;" xml:space="preserve">
<style type="text/css">
	.st0{fill:#D71718;}
	.st1{fill:#FFFFFF;}
</style>
<g transform="translate(-143 -38)">
	<circle class="st0" cx="218" cy="113" r="75"/>
	<g transform="translate(166 58)">
		<g transform="translate(7.903 8.109)">
			<g transform="translate(14.415 88.571)">
				<path class="st1" d="M6.2,4.8l-2.8-4c-0.6-0.8-1.8-1-2.6-0.4c-0.8,0.6-1,1.8-0.4,2.6l2.8,4C3.8,7.8,5,8,5.8,7.4
					C6.7,6.8,6.8,5.6,6.2,4.8L6.2,4.8z"/>
			</g>
			<g transform="translate(0 29.434)">
				<g transform="translate(0)">
					<path class="st1" d="M42.4,64.6l-3.1-14.7c-1.5-7.1-5.7-13.4-11.7-17.4L21,28.1c-2.6-1.8-6.2-1.4-8.4,0.9V6.3
						C12.6,2.8,9.8,0,6.3,0C4.9,0,3.5,0.5,2.4,1.4C0.9,2.6,0,4.4,0,6.3v29.2c0,3.8,1.2,7.5,3.4,10.6l3.4,4.7c0.6,0.8,1.8,1,2.6,0.4
						c0.8-0.6,1-1.8,0.4-2.6l0,0l-3.4-4.7c-1.8-2.5-2.7-5.4-2.7-8.4V6.3c0-1.4,1.1-2.5,2.5-2.5s2.5,1.1,2.5,2.5v23.1
						c0,3.3,1.2,6.4,3.4,8.8c0.1,0.1,0.2,0.2,0.3,0.3c1.2,1.3,2.7,2.9,4.1,4.4l1.9,2.1l0,0l2.9,3.1c0.7,0.8,1.9,0.8,2.7,0.1
						s0.8-1.9,0.1-2.7l0,0c0,0-2.2-2.4-4.8-5.1l-4.3-4.6l0,0c-1-1.2-1-3,0.1-4.2c0.9-1.1,2.5-1.3,3.7-0.5l6.6,4.4
						c5.2,3.5,8.9,8.9,10.1,15l3.1,14.7c0.2,1,1.2,1.7,2.2,1.5C41.9,66.6,42.6,65.6,42.4,64.6L42.4,64.6z"/>
				</g>
			</g>
			<g transform="translate(10.513 83.075)">
				<path class="st1" d="M3.4,0.8L3.4,0.8C2.8-0.1,1.6-0.3,0.8,0.4C-0.1,1-0.3,2.1,0.3,3l0,0C1,3.8,2.1,4,3,3.4
					C3.8,2.8,4,1.7,3.4,0.8L3.4,0.8z"/>
			</g>
			<g transform="translate(48.915 29.434)">
				<path class="st1" d="M40.1,1.4c-2.7-2.2-6.7-1.7-8.9,1c-0.9,1.1-1.4,2.5-1.4,3.9V29c-2.2-2.3-5.8-2.6-8.4-0.9l-6.6,4.4
					c-6,4-10.2,10.3-11.7,17.4L0,64.6c-0.2,1,0.4,2,1.5,2.2c1,0.2,2-0.4,2.2-1.5l3.1-14.7c1.3-6.1,4.9-11.6,10.1-15l6.6-4.4
					c1.2-0.8,2.8-0.6,3.7,0.5c1.1,1.2,1.1,2.9,0.1,4.2l0,0l-9.1,9.6c-0.7,0.8-0.7,1.9,0.1,2.7c0.8,0.7,1.9,0.7,2.7-0.1
					c0,0,7.7-8.2,9-9.5c0.1-0.1,0.2-0.2,0.3-0.3c2.2-2.4,3.4-5.6,3.4-8.8V6.3c0-1.4,1.1-2.5,2.5-2.5c1.4,0,2.5,1.1,2.5,2.5v29.2
					c0,3-0.9,6-2.7,8.4l-14.2,20c-0.6,0.8-0.4,2,0.4,2.6c0.8,0.6,2,0.4,2.6-0.4l14.2-20c2.2-3.1,3.4-6.8,3.4-10.6V6.3
					C42.4,4.4,41.5,2.6,40.1,1.4z"/>
			</g>
			<g transform="translate(15.068 10.159)">
				<path class="st1" d="M54.4,25.9l-3.3-0.8v-0.6c2.3-1.6,3.6-4.1,3.6-6.9v-4.4c0-4.6-3.8-8.4-8.4-8.4c-2,0-4,0.7-5.5,2
					c-2.3-5.6-8.7-8.3-14.3-6c-2.8,1.1-4.9,3.3-6,6.1c-3.5-3-8.8-2.6-11.9,0.9c-1.3,1.5-2,3.5-2,5.5v4.4c0,2.8,1.3,5.3,3.6,6.9v0.6
					l-3.3,0.8c-4,0.9-6.8,4.5-6.8,8.6V38c0,1,0.8,1.9,1.9,1.9h8.6c0,0.2,0,0.5,0,0.7v6.8c0,1,0.8,1.9,1.9,1.9h11.3
					c1,0,1.9-0.8,1.9-1.9s-0.8-1.9-1.9-1.9h-1.9v-3.9c0-1-0.8-1.9-1.9-1.9S18,40.5,18,41.6v3.9h-3.7v-4.9c0-3.6,2.5-6.8,6-7.6
					l5.2-1.2l3.5,7.9c0.3,0.7,1,1.1,1.7,1.1l0,0c0.7,0,1.4-0.4,1.7-1.1l3.5-7.8l5.1,1.2c3.5,0.8,6,4,6,7.6v4.9h-3.7v-3.9
					c0-1-0.8-1.9-1.9-1.9s-1.9,0.8-1.9,1.9v3.9h-2.1c-1,0-1.9,0.8-1.9,1.9s0.8,1.9,1.9,1.9h11.5c1,0,1.9-0.8,1.9-1.9v-6.8
					c0-0.2,0-0.5,0-0.7h8.7c1,0,1.9-0.8,1.9-1.9v-3.5C61.2,30.4,58.4,26.8,54.4,25.9z M46.3,8.6c2.5,0,4.5,1.9,4.6,4.4h-2.6
					c-2.2,0-4.4-0.5-6.3-1.5C42.7,9.7,44.4,8.6,46.3,8.6z M41.6,17.3c0-0.1,0-0.2,0-0.3v-1.7c2.1,0.9,4.4,1.3,6.7,1.3h2.6v0.9
					c0,2.6-2.1,4.7-4.7,4.7s-4.7-2.1-4.7-4.7l0,0L41.6,17.3z M23.4,11L23.4,11c0-4,3.2-7.2,7.2-7.2c3.5,0,6.6,2.6,7.1,6.1L34.6,8
					c-0.8-0.5-1.8-0.3-2.4,0.4c-1.5,1.8-3.8,2.9-6.2,2.9h-2.6V11z M15,8.6c1.9,0,3.5,1.1,4.3,2.8c-1.9,1-4.1,1.5-6.3,1.5h-2.6
					C10.5,10.5,12.5,8.6,15,8.6L15,8.6z M10.3,16.7h2.6c2.3,0,4.6-0.5,6.7-1.3v2.2c0,2.6-2.1,4.7-4.7,4.7s-4.7-2.1-4.7-4.7
					L10.3,16.7z M19.4,29.3c-3.6,0.9-6.6,3.4-8,6.8H3.8v-1.6c0-2.4,1.6-4.4,3.9-4.9l4.8-1.1c0.8-0.2,1.4-1,1.4-1.8V26
					c0.7,0.1,1.4,0.1,2.1,0v0.5c0,0,0,0.1,0,0.1c0,0.9,0.6,1.7,1.5,1.9l2.8,0.7L19.4,29.3z M24.6,26.4c-0.5-0.2-1-0.4-1.5-0.5
					l-3.4-0.8v-0.6c0.6-0.4,1.2-0.9,1.6-1.5c0.8,1.3,1.9,2.4,3.2,3.2L24.6,26.4L24.6,26.4z M32.8,29.2l-2.2,5l-2.2-5v-1.3
					c1.5,0.3,3,0.3,4.4,0L32.8,29.2z M30.6,24.3c-4,0-7.2-3.2-7.2-7.2v-2H26c3,0,5.8-1.1,8-3.1l3.9,2.3v3.1
					C37.7,21.2,34.5,24.3,30.6,24.3L30.6,24.3z M36.6,26.4v-0.1c1.3-0.8,2.4-2,3.3-3.3c0.5,0.6,1,1.1,1.6,1.5v0.6l-3.4,0.8
					C37.6,26,37.1,26.2,36.6,26.4L36.6,26.4z M57.4,36.1h-7.7c-1.4-3.4-4.4-5.9-8-6.8l-0.9-0.2l2.8-0.7c0.9-0.2,1.5-0.9,1.5-1.9
					c0,0,0,0,0,0V26c0.7,0.1,1.4,0.1,2.1,0v0.6c0,0.9,0.6,1.6,1.4,1.8l4.8,1.1c2.3,0.5,3.9,2.6,3.9,4.9L57.4,36.1z"/>
			</g>
			<g transform="translate(43.78 55.625)">
				<path class="st1" d="M3.2,0.5c-0.7-0.7-1.9-0.7-2.7,0s-0.7,1.9,0,2.7c0.7,0.7,1.9,0.7,2.7,0c0.4-0.4,0.6-0.8,0.6-1.3
					C3.8,1.4,3.6,0.9,3.2,0.5z"/>
			</g>
			<g transform="translate(43.779)">
				<path class="st1" d="M1.9,0C0.8,0,0,0.8,0,1.9v2.8c0,1,0.8,1.9,1.9,1.9s1.9-0.8,1.9-1.9V1.9C3.8,0.8,2.9,0,1.9,0
					C1.9,0,1.9,0,1.9,0z"/>
			</g>
			<g transform="translate(34.056 3.615)">
				<path class="st1" d="M5.2,2.5l-2-2c-0.7-0.7-1.9-0.7-2.7,0c-0.7,0.7-0.7,1.9,0,2.7l2,2c0.7,0.7,1.9,0.7,2.7,0
					C5.9,4.4,5.9,3.3,5.2,2.5z"/>
			</g>
			<g transform="translate(51.502 3.663)">
				<path class="st1" d="M5.2,0.6c-0.7-0.7-1.9-0.7-2.7,0c0,0,0,0,0,0l-2,2c-0.7,0.7-0.7,1.9,0,2.7s1.9,0.7,2.7,0l2-2
					C5.9,2.5,5.9,1.3,5.2,0.6z"/>
			</g>
		</g>
	</g>
</g>
</svg>
