<?xml version="1.0" encoding="utf-8"?>
<!-- Generator: Adobe Illustrator 26.0.3, SVG Export Plug-In . SVG Version: 6.00 Build 0)  -->
<svg version="1.1" id="圖層_1" xmlns="http://www.w3.org/2000/svg" xmlns:xlink="http://www.w3.org/1999/xlink" x="0px" y="0px"
	 viewBox="0 0 150 150" style="enable-background:new 0 0 150 150;" xml:space="preserve">
<style type="text/css">
	.st0{fill:none;}
	.st1{fill:#D71718;}
</style>
<g transform="translate(-143 -38)">
	<g transform="translate(143 38)">
		<circle class="st0" cx="75" cy="75" r="75"/>
	</g>
	<g transform="translate(165.201 59)">
		<path class="st1" d="M101.2,66h-9.6v-4.9c0-2.7-2.1-4.9-4.8-4.9H70.6c-1.3,0-2.6,0.6-3.5,1.6l-17.4-2.9v-4.1c5-2.9,8-8.3,8-14h1.6
			c2.7,0,4.8-2.3,4.8-4.9c0-2.6-2.2-4.8-4.8-4.8h-0.8l0.9-2.1c1.7-3.9,1.4-8.3-0.8-11.9C57.4,10.8,55.4,9,53,7.9l-4.5-2.1
			C43.1,3.4,36.8,4.1,32,7.6l-2.5,1.9l0,0c-5.4,1.4-8.6,7-7.2,12.4c0.2,0.7,0.4,1.3,0.7,1.9l1.6,3.2H24c-2.7,0-4.8,2.3-4.8,4.9
			c0,2.6,2.2,4.8,4.8,4.8h1.6c0,5.8,3.1,11.1,8,14v4.1l-19.5,3.3c-5.5,0.9-9.4,5.7-9.4,11.2v34c0,0.9,0.7,1.6,1.6,1.6c0,0,0,0,0,0
			h94.9c1.8,0,3.2-1.5,3.2-3.2V69.3C104.4,67.5,103,66,101.2,66z M88.3,61.2V66H78.2c-0.9-2.7-2.7-5.1-5.2-6.5h13.8
			C87.6,59.5,88.3,60.3,88.3,61.2z M69,61.5c2.5,0.5,4.6,2.2,5.7,4.6H69L69,61.5z M61,31.9c0,0.9-0.7,1.6-1.6,1.6h-1.6v-3.2h1.6
			C60.3,30.3,61,31,61,31.9z M26.2,15.8c1.2-2.1,3.4-3.3,5.8-3.3c2.5,0,4.9,1.3,6.3,3.4l0.5,0.8l2.7-1.8L40.9,14
			c-1.4-2.2-3.6-3.7-6.1-4.4c3.7-2.3,8.3-2.6,12.3-0.8l4.5,2.1c1.8,0.8,3.3,2.2,4.3,3.9c1.6,2.7,1.8,6.1,0.6,9L56.4,24l-2-4.1
			c-0.4-0.8-1.3-1.1-2.1-0.7c-0.1,0-0.2,0.1-0.3,0.2l-2.6,1.9c-4.6,3.5-10.9,3.5-15.4,0l-2.6-1.9C31,19,30.6,18.9,30.1,19
			c-0.5,0.1-0.9,0.4-1.1,0.9l-2.2,4.4l-0.9-1.9C24.9,20.3,25,17.8,26.2,15.8L26.2,15.8z M24,33.5c-0.9,0-1.6-0.7-1.6-1.6
			c0-0.9,0.7-1.6,1.6-1.6h1.6v3.2H24z M28.8,36.8v-9.4L31,23l1,0.8c5.7,4.3,13.6,4.3,19.3,0l1-0.8l2.2,4.4v9.4
			c0.1,7.1-5.6,12.9-12.7,13s-12.9-5.6-13-12.7C28.8,37,28.8,36.9,28.8,36.8L28.8,36.8z M41.7,53c1.6,0,3.3-0.3,4.8-0.7v3.3
			l-4.8,4.9l-4.8-4.9v-3.3C38.4,52.8,40.1,53,41.7,53L41.7,53z M41.2,70.9h1l2.6,6.6l-3.1,13.8l-3.1-13.8L41.2,70.9z M44.8,64.2
			l-2.3,3.5H41l-2.3-3.5l0.5-1.6l1.4,1.4c0.6,0.6,1.6,0.6,2.3,0c0,0,0,0,0,0l1.4-1.4L44.8,64.2z M24,101.8V74.1h-3.2v27.6H7.9V69.4
			c0-4,2.8-7.3,6.7-8L34.7,58l1.9,1.9l-1.3,3.9c-0.2,0.5-0.1,1,0.2,1.4l2.7,4.2l-2.9,7.3c-0.1,0.3-0.1,0.6-0.1,1l4.8,21.1
			c0.2,0.9,1.1,1.4,1.9,1.2c0.6-0.1,1.1-0.6,1.2-1.2l4.8-21.1c0.1-0.3,0-0.7-0.1-1l-2.9-7.3l2.7-4.2c0.3-0.4,0.3-0.9,0.2-1.4
			L46.8,60l1.9-1.9l17.2,2.9c0,0.1,0,0.2,0,0.2V66h-9.6c-1.8,0-3.2,1.5-3.2,3.2v32.5H24z M57.8,101.8h-1.6v-3.2h45v3.2H57.8z
			 M101.2,95.3h-45V82.1c2.1,2.2,5,3.4,8,3.4h9.6v1.6c0,2.7,2.1,4.9,4.8,4.9s4.9-2.1,4.9-4.8c0,0,0-0.1,0-0.1v-1.6h9.6
			c3,0,5.9-1.2,8-3.4L101.2,95.3z M77.1,87.1V79h3.2v8.1c0,0.9-0.7,1.6-1.6,1.6S77.1,88,77.1,87.1z M101.2,74.1c0,4.5-3.6,8.1-8,8.1
			h-9.6v-4.9c0-0.9-0.7-1.6-1.6-1.6c0,0,0,0,0,0h-6.4c-0.9,0-1.6,0.7-1.6,1.6c0,0,0,0,0,0v4.9h-9.6c-4.5,0-8.1-3.7-8-8.1v-4.9h45
			V74.1z"/>
		<rect x="-0.2" y="0" class="st0" width="110" height="110"/>
	</g>
</g>
</svg>
