<svg viewBox="0 0 150 150" xmlns="http://www.w3.org/2000/svg"><circle cx="75" cy="75" fill="#098afe" r="62.5"/><g fill="#fff"><path d="m108 100.57h-5.07c.16-.17.34-.36.54-.55l.14-.14c2.14-2.15 5.09-5.08 4.53-9a4.68 4.68 0 0 0 -2.89-3.88 7 7 0 0 0 -6.59 1.15 1.75 1.75 0 0 0 2.14 2.78 3.6 3.6 0 0 1 3.12-.68c.28.11.62.34.73 1.11.31 2.22-1.74 4.26-3.54 6.06l-.14.15c-2.53 2.53-3.09 3.88-3.2 4.45a1.72 1.72 0 0 0 .37 1.45 1.76 1.76 0 0 0 1.35.64h8.51a1.76 1.76 0 0 0 0-3.51z"/><path d="m71.38 43.69 2.18-1.24v9.4h-3a1.72 1.72 0 1 0 0 3.43h8.88a1.72 1.72 0 1 0 0-3.43h-2.44v-12.35a1.72 1.72 0 0 0 -2.58-1.5l-4.74 2.71a1.72 1.72 0 1 0 1.7 3z"/><path d="m103.33 79.18a16.17 16.17 0 0 0 -4.42.63l-13.27-21a16.17 16.17 0 1 0 -21.28 0l-13.26 21a16.17 16.17 0 1 0 11.6 17.54h24.6a16.16 16.16 0 1 0 16-18.17zm-40.5-32.53a12.17 12.17 0 1 1 12.17 12.17 12.18 12.18 0 0 1 -12.17-12.17zm-16.16 60.87a12.17 12.17 0 1 1 12.16-12.17 12.18 12.18 0 0 1 -12.16 12.17zm16-14.17a16.21 16.21 0 0 0 -7.88-11.94l12.88-20.41a16 16 0 0 0 14.66 0l12.85 20.41a16.19 16.19 0 0 0 -7.88 11.94zm40.63 14.17a12.17 12.17 0 1 1 12.2-12.17 12.18 12.18 0 0 1 -12.17 12.17z"/><path d="m50.49 94.52a5.68 5.68 0 0 0 1.19-3.4c0-1.34-.48-4.47-5-4.47a8.62 8.62 0 0 0 -4.93 1.72 1.69 1.69 0 0 0 2.06 2.68 5.51 5.51 0 0 1 2.87-1c1.57 0 1.57.43 1.57 1.08a2.64 2.64 0 0 1 -1.56 2.22 5.67 5.67 0 0 1 -1.07.13h-.1c-.25 0-.5 0-.69 0a1.67 1.67 0 0 0 -1.71 1.67 1.7 1.7 0 0 0 1.67 1.72h.21.8c1.63-.08 2.79.22 3.26.82a1.65 1.65 0 0 1 .19 1.42 2.73 2.73 0 0 1 -2.8 1.67 5.38 5.38 0 0 1 -2.94-1 1.69 1.69 0 0 0 -2.13 2.63 8.63 8.63 0 0 0 5.07 1.78 6 6 0 0 0 6.05-4.08 4.76 4.76 0 0 0 -2-5.55z"/></g></svg>