<svg viewBox="0 0 150 150" xmlns="http://www.w3.org/2000/svg"><circle cx="75" cy="75" fill="#098afe" r="62.5"/><path d="m112.24 95.92h-12.34v-17.25a1.76 1.76 0 0 0 -1.76-1.77h-14.09a1.76 1.76 0 0 0 -1.76 1.77v7.16h-10.58v-20.5a1.76 1.76 0 0 0 -1.71-1.76h-12.38v-12.73a1.76 1.76 0 0 0 -1.76-1.76h-12.34v-9.32a1.76 1.76 0 0 0 -3.52 0v70.48a1.76 1.76 0 0 0 1.76 1.76h70.48a1.76 1.76 0 0 0 1.76-1.76v-12.56a1.76 1.76 0 0 0 -1.76-1.76zm-68.72-43.32h10.58v55.88h-10.58zm14.1 14.49h10.57v41.39h-10.57zm14.09 22.27h10.58v19.12h-10.58zm14.1-1.77v-7.16h10.57v28.05h-10.57zm14.09 20.89v-9h10.58v9z" fill="#fff"/></svg>